<svg xmlns="http://www.w3.org/2000/svg" viewBox="0 0 25 25"><title>Artboard-13</title><g id="Zoom_Out" data-name="Zoom Out"><path d="M15,8.5A6.5,6.5,0,1,0,8.5,15,6.5075,6.5075,0,0,0,15,8.5ZM3,8.5A5.5,5.5,0,1,1,8.5,14,5.5062,5.5062,0,0,1,3,8.5Z" style="fill:#232326"/><rect x="6" y="8" width="5" height="1" style="fill:#232326"/><path d="M24.0254,19.3179,18.5,13.793l-1,1-1.7988-1.7985a8.53,8.53,0,1,0-2.7071,2.7069L14.7929,17.5l-1,1,5.5254,5.5249a3.3284,3.3284,0,0,0,4.707-4.707ZM1,8.5A7.5,7.5,0,1,1,8.5,16,7.5083,7.5083,0,0,1,1,8.5Zm12.8262,6.62a9.9793,9.9793,0,0,0,1.2929-1.2925L16.793,15.5,15.5,16.793Zm9.4922,8.1983a2.384,2.384,0,0,1-3.293,0L15.207,18.5,18.5,15.207l4.8184,4.8179A2.3324,2.3324,0,0,1,23.3184,23.3179Z" style="fill:#232326"/></g></svg>