<svg xmlns="http://www.w3.org/2000/svg" viewBox="0 0 25 25"><title>Artboard-6</title><g id="Cloud_Close" data-name="Cloud Close"><polygon points="13.293 16 12.5 16.793 11.707 16 11 16.707 11.793 17.5 11 18.293 11.707 19 12.5 18.207 13.293 19 14 18.293 13.207 17.5 14 16.707 13.293 16" style="fill:#232326"/><path d="M12.5,13A4.5,4.5,0,1,0,17,17.5,4.505,4.505,0,0,0,12.5,13Zm0,8A3.5,3.5,0,1,1,16,17.5,3.5042,3.5042,0,0,1,12.5,21Z" style="fill:#232326"/><path d="M19.9907,7.2065a4.489,4.489,0,0,0-8.8183-.8711A4.3258,4.3258,0,0,0,9.5,6,4.4813,4.4813,0,0,0,5.2705,9.0059,4.5,4.5,0,0,0,5.5,18H7V17H5.5a3.499,3.499,0,1,1,.0122-6.998h.0034l.5132.0078.0957-.377A3.4845,3.4845,0,0,1,9.5,7a3.4314,3.4314,0,0,1,1.7827.5088l.6694.4014.085-.7759A3.4906,3.4906,0,0,1,19,7.4805l-.01.5293.4014.08A4.4994,4.4994,0,0,1,18.5,17H18v1h.5A5.5,5.5,0,0,0,19.9907,7.2065Z" style="fill:#232326"/></g></svg>