<svg xmlns="http://www.w3.org/2000/svg" viewBox="0 0 25 25"><title>Artboard-1</title><g id="Sun"><path d="M12.5,5A7.5,7.5,0,1,0,20,12.5,7.5083,7.5083,0,0,0,12.5,5Zm0,14A6.5,6.5,0,1,1,19,12.5,6.5075,6.5075,0,0,1,12.5,19Z" style="fill:#232326"/><rect x="12" y="1" width="1" height="3" style="fill:#232326"/><rect x="4.929" y="3.9288" width="0.9999" height="3.0004" transform="translate(-2.2487 5.429) rotate(-45)" style="fill:#232326"/><rect x="1" y="12" width="3" height="1" style="fill:#232326"/><rect x="3.9288" y="19.0711" width="3.0004" height="0.9999" transform="translate(-12.2487 9.5711) rotate(-45)" style="fill:#232326"/><rect x="12" y="21" width="1" height="3" style="fill:#232326"/><rect x="19.0711" y="18.0709" width="0.9999" height="3.0004" transform="translate(-8.1066 19.571) rotate(-45)" style="fill:#232326"/><rect x="21" y="12" width="3" height="1" style="fill:#232326"/><rect x="18.0709" y="4.929" width="3.0004" height="0.9999" transform="translate(1.8934 15.4289) rotate(-45)" style="fill:#232326"/></g></svg>