<svg xmlns="http://www.w3.org/2000/svg" viewBox="0 0 25 25"><title>Artboard-3</title><g id="Cloud"><path d="M19.99,9.2061a4.4885,4.4885,0,0,0-8.8173-.8711A4.4113,4.4113,0,0,0,9.5,8a4.4866,4.4866,0,0,0-4.231,3.0059A4.5,4.5,0,0,0,5.5,20h13A5.5,5.5,0,0,0,19.99,9.2061ZM18.5,19H5.5a3.499,3.499,0,1,1-.001-6.998h.0034l.52.0239.0991-.3887A3.49,3.49,0,0,1,9.5,9a3.4351,3.4351,0,0,1,1.7856.5073l.6714.4014.0826-.7778a3.4894,3.4894,0,0,1,6.96.352l-.0215.5239.4131.083A4.5,4.5,0,0,1,18.5,19Z" style="fill:#232326"/></g></svg>