<svg xmlns="http://www.w3.org/2000/svg" viewBox="0 0 25 25"><title>Artboard-12</title><g id="Zoom_In" data-name="Zoom In"><path d="M15,8.5A6.5,6.5,0,1,0,8.5,15,6.5075,6.5075,0,0,0,15,8.5ZM3,8.5A5.5,5.5,0,1,1,8.5,14,5.5062,5.5062,0,0,1,3,8.5Z" style="fill:#232326"/><polygon points="9 11 9 9 11 9 11 8 9 8 9 6 8 6 8 8 6 8 6 9 8 9 8 11 9 11" style="fill:#232326"/><path d="M24.0249,19.3179,18.5,13.793l-1,1-1.7986-1.7987a8.53,8.53,0,1,0-2.7071,2.7071L14.793,17.5l-1,1,5.5249,5.5249a3.3284,3.3284,0,1,0,4.707-4.707ZM1,8.5A7.5,7.5,0,1,1,8.5,16,7.5083,7.5083,0,0,1,1,8.5Zm12.8267,6.62A7.7553,7.7553,0,0,0,15.12,13.8267L16.793,15.5,15.5,16.793Zm9.4912,8.1983a2.3849,2.3849,0,0,1-3.293,0L15.207,18.5,18.5,15.207l4.8179,4.8179a2.3283,2.3283,0,0,1,0,3.293Z" style="fill:#232326"/></g></svg>