<svg xmlns="http://www.w3.org/2000/svg" viewBox="0 0 25 25"><title>Artboard-5</title><g id="Cloud_Upload" data-name="Cloud Upload"><polygon points="14.146 15.061 14.854 14.354 12.5 12 10.146 14.354 10.854 15.061 12 13.914 12 22 13 22 13 13.914 14.146 15.061" style="fill:#232326"/><path d="M19.99,7.2065a4.489,4.489,0,0,0-8.8183-.8715A4.3266,4.3266,0,0,0,9.5,6,4.4842,4.4842,0,0,0,5.27,9.0059,4.5,4.5,0,0,0,5.5,18H11V17H5.5a3.499,3.499,0,1,1,.0117-6.998h.0039l.5127.0078.0957-.3765A3.486,3.486,0,0,1,9.5,7a3.4344,3.4344,0,0,1,1.7832.5088l.6689.4018.085-.7763A3.4906,3.4906,0,0,1,19,7.4805l-.01.5293.4014.08A4.4994,4.4994,0,0,1,18.5,17H14v1h4.5A5.5,5.5,0,0,0,19.99,7.2065Z" style="fill:#232326"/></g></svg>