<svg xmlns="http://www.w3.org/2000/svg" viewBox="0 0 25 25"><title>Artboard-20</title><g id="Bell_Off" data-name="Bell Off"><path d="M21.85,4.85l-.7-.7L19.1816,6.1184A7.4921,7.4921,0,0,0,5,9.5v4.73l-3,2V21H4.3L3.15,22.15l.7.7C6.65,20.0505,11.828,14.8719,21.85,4.85ZM5.3,20H3V16.77l3-2V9.5A6.497,6.497,0,0,1,18.4364,6.8636Z" style="fill:#232326"/><rect x="8" y="22" width="9" height="1" style="fill:#232326"/><path d="M20,14.23V9.5a6.6684,6.6684,0,0,0-.12-1.27l-.9.9A2.2345,2.2345,0,0,1,19,9.5v5.27l3,2V20H8.11l-1,1H23V16.23Z" style="fill:#232326"/></g></svg>