<svg xmlns="http://www.w3.org/2000/svg" viewBox="0 0 25 25"><title>Artboard-23</title><g id="Mic_Off" data-name="Mic Off"><rect x="9" y="23" width="7" height="1" style="fill:#232326"/><path d="M12.5,21a6.4763,6.4763,0,0,1-4.7335-2.0594l.7067-.7068A5.4919,5.4919,0,0,0,18,14.5V8.707l1.8535-1.8535-.707-.707L18,7.293V6.5a5.5,5.5,0,0,0-11,0v8a5.46,5.46,0,0,0,.8572,2.9358l-.7243.7243A6.461,6.461,0,0,1,6,14.5H5a7.4507,7.4507,0,0,0,1.42,4.3735l-1.273,1.273.707.707L7.06,19.6475A7.49,7.49,0,0,0,20,14.5H19A6.5075,6.5075,0,0,1,12.5,21ZM17,14.5a4.484,4.484,0,0,1-7.813,3.02L17,9.707Zm-9,0v-8a4.5,4.5,0,0,1,9,0V8.293L8.5967,16.6963A4.4456,4.4456,0,0,1,8,14.5Z" style="fill:#232326"/></g></svg>