<svg xmlns="http://www.w3.org/2000/svg" viewBox="0 0 25 25"><title>Artboard-8</title><g id="Cloud_Disable" data-name="Cloud Disable"><path d="M19.99,8.21a3.9355,3.9355,0,0,0-.16-.92l-.85.85c.01.11.02.23.02.34l-.02.53.41.08A4.4994,4.4994,0,0,1,18.5,18H9.12l-1,1H18.5A5.4975,5.4975,0,0,0,19.99,8.21Z" style="fill:#232326"/><path d="M20.293,4,18.8157,5.4773A4.4726,4.4726,0,0,0,11.17,7.33,4.3622,4.3622,0,0,0,9.5,7a4.4857,4.4857,0,0,0-4.23,3.01,4.49,4.49,0,0,0,.042,8.971L4,20.293,4.707,21,21,4.707ZM5.5,18a3.5,3.5,0,0,1,0-7l.52.03.1-.39A3.493,3.493,0,0,1,9.5,8a3.4522,3.4522,0,0,1,1.79.51l.67.4.08-.78a3.48,3.48,0,0,1,6.0738-1.9508L6.293,18Z" style="fill:#232326"/></g></svg>