<svg xmlns="http://www.w3.org/2000/svg" viewBox="0 0 25 25"><title>Artboard-24</title><g id="Volume_On" data-name="Volume On"><path d="M21,12.5A4.505,4.505,0,0,0,16.5,8H16V9h.5a3.5,3.5,0,0,1,0,7H16v1h.5A4.505,4.505,0,0,0,21,12.5Z" style="fill:#232326"/><path d="M19,12.5A2.5026,2.5026,0,0,0,16.5,10H16v1h.5a1.5,1.5,0,0,1,0,3H16v1h.5A2.5026,2.5026,0,0,0,19,12.5Z" style="fill:#232326"/><path d="M16.5,6H16V7h.5a5.5,5.5,0,0,1,0,11H16v1h.5a6.5,6.5,0,0,0,0-13Z" style="fill:#232326"/><path d="M6.5,8a4.5,4.5,0,0,0,0,9H10l5,2V6L10,8ZM14,7.48V17.52L10.19,16H6.5a3.5,3.5,0,0,1,0-7h3.69Z" style="fill:#232326"/></g></svg>