<svg xmlns="http://www.w3.org/2000/svg" viewBox="0 0 25 25"><title>Artboard-4</title><g id="Cloud_Download" data-name="Cloud Download"><polygon points="13 21.086 13 12 12 12 12 21.086 10.854 19.939 10.146 20.646 12.5 23 14.854 20.646 14.146 19.939 13 21.086" style="fill:#232326"/><path d="M19.99,6.2065a4.489,4.489,0,0,0-8.8183-.8715A4.3266,4.3266,0,0,0,9.5,5,4.4842,4.4842,0,0,0,5.27,8.0059,4.5,4.5,0,0,0,5.5,17H11V16H5.5a3.499,3.499,0,1,1,.0117-6.998h.0039l.5127.0078.0957-.3765A3.486,3.486,0,0,1,9.5,6a3.4344,3.4344,0,0,1,1.7832.5088l.6689.4018.085-.7763A3.4906,3.4906,0,0,1,19,6.4805l-.01.5293.4014.08A4.4994,4.4994,0,0,1,18.5,16H14v1h4.5A5.5,5.5,0,0,0,19.99,6.2065Z" style="fill:#232326"/></g></svg>