<svg xmlns="http://www.w3.org/2000/svg" viewBox="0 0 25 25"><title>Artboard-7</title><g id="Cloud_Refresh" data-name="Cloud Refresh"><path d="M9.5884,20H11V19H8v3H9V20.72A4.7424,4.7424,0,0,0,17,17H16A3.8108,3.8108,0,0,1,9.5884,20Z" style="fill:#232326"/><path d="M16,14.28A4.7424,4.7424,0,0,0,8,18H9a3.8108,3.8108,0,0,1,6.4116-3H14v1h3V13H16Z" style="fill:#232326"/><path d="M19.9907,7.2065a4.489,4.489,0,0,0-8.8183-.8711A4.3258,4.3258,0,0,0,9.5,6,4.4813,4.4813,0,0,0,5.2705,9.0059,4.5,4.5,0,0,0,5.5,18H7V17H5.5a3.499,3.499,0,1,1,.0122-6.998h.0034l.5132.0078.0957-.377A3.4845,3.4845,0,0,1,9.5,7a3.4314,3.4314,0,0,1,1.7827.5088l.6694.4014.085-.7759A3.4906,3.4906,0,0,1,19,7.4805l-.01.5293.4014.08A4.4994,4.4994,0,0,1,18.5,17H18v1h.5A5.5,5.5,0,0,0,19.9907,7.2065Z" style="fill:#232326"/></g></svg>