<svg xmlns="http://www.w3.org/2000/svg" viewBox="0 0 25 25"><title>Artboard-21</title><g id="Stars"><path d="M18.5,5A5.4969,5.4969,0,0,1,13,10.5,5.49,5.49,0,0,1,18.5,16,5.4969,5.4969,0,0,1,24,10.5,5.4969,5.4969,0,0,1,18.5,5Zm0,7.54a6.3626,6.3626,0,0,0-2.04-2.04A6.6189,6.6189,0,0,0,18.5,8.46a6.6189,6.6189,0,0,0,2.04,2.04A6.6189,6.6189,0,0,0,18.5,12.54Z" style="fill:#232326"/><path d="M6.5,1A5.4969,5.4969,0,0,1,1,6.5a5.4886,5.4886,0,0,1,3.1.95A5.4992,5.4992,0,0,1,6.5,12,5.4969,5.4969,0,0,1,12,6.5,5.4969,5.4969,0,0,1,6.5,1Zm0,7.54A6.3626,6.3626,0,0,0,4.46,6.5,6.6189,6.6189,0,0,0,6.5,4.46,6.6189,6.6189,0,0,0,8.54,6.5,6.6189,6.6189,0,0,0,6.5,8.54Z" style="fill:#232326"/><path d="M10.5,13A5.4969,5.4969,0,0,1,5,18.5,5.49,5.49,0,0,1,10.5,24,5.4969,5.4969,0,0,1,16,18.5,5.4969,5.4969,0,0,1,10.5,13Zm0,7.54A6.3626,6.3626,0,0,0,8.46,18.5a6.6189,6.6189,0,0,0,2.04-2.04,6.6189,6.6189,0,0,0,2.04,2.04A6.6189,6.6189,0,0,0,10.5,20.54Z" style="fill:#232326"/></g></svg>